<?xml version="1.0" standalone="no"?>
<!DOCTYPE svg PUBLIC "-//W3C//DTD SVG 20010904//EN"
 "http://www.w3.org/TR/2001/REC-SVG-20010904/DTD/svg10.dtd">
<svg version="1.0" xmlns="http://www.w3.org/2000/svg"
 width="1034.000000pt" height="574.000000pt" viewBox="0 0 1034.000000 574.000000"
 preserveAspectRatio="xMidYMid meet">

<g transform="translate(0.000000,574.000000) scale(0.100000,-0.100000)"
fill="#000000" stroke="none">
<path d="M1170 3925 c0 -1714 -5 -1606 75 -1770 90 -186 240 -312 439 -369
l88 -26 3699 0 3700 0 -3 1548 c-4 1733 3 1583 -78 1747 -88 180 -244 310
-446 372 -56 17 -226 18 -3766 20 l-3708 3 0 -1525z m5655 920 c214 -45 350
-182 402 -402 17 -72 18 -137 18 -813 0 -674 -2 -741 -18 -812 -38 -164 -131
-288 -259 -351 -104 -50 -164 -62 -308 -61 -105 1 -137 5 -202 27 -143 46
-234 124 -294 250 -65 138 -65 135 -62 981 l3 761 28 80 c51 144 133 241 251
296 122 57 297 74 441 44z m1349 0 c161 -34 271 -115 336 -248 57 -116 70
-188 70 -400 l0 -177 -175 2 -174 3 -4 170 c-5 237 -31 290 -151 315 -96 20
-177 -15 -215 -93 -21 -43 -21 -54 -21 -783 l0 -740 25 -50 c13 -27 37 -57 53
-66 69 -41 182 -35 236 13 60 52 68 89 74 327 l5 212 174 0 175 0 -5 -252 c-3
-220 -7 -261 -24 -314 -29 -89 -71 -161 -124 -214 -101 -101 -221 -144 -404
-144 -249 -1 -411 85 -499 266 -66 135 -66 143 -66 965 0 817 0 815 65 951 62
131 182 223 335 256 86 19 228 19 314 1z m-5421 -318 c26 -166 63 -399 82
-517 19 -118 82 -512 140 -875 58 -363 108 -670 110 -682 l5 -23 -192 0 -193
0 -31 210 c-17 116 -33 213 -36 215 -6 7 -449 7 -456 0 -3 -3 -20 -99 -37
-213 l-30 -207 -173 -3 c-159 -2 -172 -1 -172 15 0 10 9 74 20 143 12 69 95
589 186 1155 90 567 167 1042 170 1058 l6 27 276 0 277 0 48 -303z m1263 292
c147 -26 283 -126 341 -249 63 -133 63 -135 63 -937 0 -805 0 -805 -64 -938
-42 -90 -115 -164 -201 -205 -111 -53 -178 -60 -556 -60 l-339 0 0 1200 0
1200 348 0 c205 0 373 -4 408 -11z m1024 -504 l0 -515 215 0 215 0 0 515 0
515 190 0 190 0 2 -1200 3 -1200 -192 0 -193 0 0 515 0 515 -215 0 -215 0 0
-515 0 -515 -190 0 -190 0 0 1200 0 1200 190 0 190 0 0 -515z"/>
<path d="M6610 4509 c-55 -17 -86 -45 -109 -99 -21 -50 -21 -51 -19 -792 l3
-743 24 -41 c33 -58 83 -84 162 -84 86 0 134 27 168 95 l26 49 0 731 c0 772 0
770 -46 830 -12 14 -33 32 -47 39 -38 19 -121 27 -162 15z"/>
<path d="M2320 3817 c-46 -309 -86 -577 -88 -594 l-4 -33 182 0 182 0 -6 28
c-3 15 -31 196 -61 402 -31 206 -69 459 -84 563 -15 103 -30 189 -32 191 -2 3
-42 -248 -89 -557z"/>
<path d="M3640 3631 l0 -861 113 0 c176 1 223 18 265 100 l22 44 0 716 0 716
-25 50 c-39 78 -64 88 -232 92 l-143 4 0 -861z"/>
<path d="M3270 1197 c0 -394 3 -417 67 -546 65 -129 192 -238 347 -296 154
-58 7 -55 2853 -55 l2614 0 -3 332 c-4 330 -4 334 -31 413 -83 247 -286 433
-534 489 -65 15 -312 16 -2692 16 l-2621 0 0 -353z m5365 280 c194 -68 346
-210 424 -395 42 -100 51 -184 51 -473 l0 -269 -2627 2 -2628 3 -79 23 c-220
64 -373 197 -438 382 -22 62 -23 80 -26 413 l-3 347 2623 -2 2623 -3 80 -28z"/>
<path d="M3873 1310 c-43 -14 -87 -60 -101 -107 -16 -54 -17 -526 -1 -574 37
-109 184 -153 276 -83 40 30 51 50 62 108 7 40 6 45 -13 50 -49 13 -62 7 -75
-34 -21 -70 -85 -91 -138 -46 l-28 24 -3 218 c-5 327 4 364 87 364 44 0 75
-28 86 -80 7 -31 19 -35 64 -23 21 5 23 10 18 51 -5 47 -27 84 -68 114 -30 22
-120 32 -166 18z"/>
<path d="M4522 978 c3 -315 4 -335 24 -373 71 -136 292 -116 333 30 7 25 11
158 11 358 l0 317 -45 0 -45 0 0 -310 c0 -330 -4 -366 -48 -389 -29 -16 -74
-14 -99 4 -38 26 -43 75 -43 393 l0 302 -46 0 -45 0 3 -332z"/>
<path d="M5340 915 l0 -396 158 3 157 3 0 40 0 40 -112 3 -113 3 0 349 0 350
-45 0 -45 0 0 -395z"/>
<path d="M5932 1268 l3 -43 73 -3 72 -3 0 -349 0 -350 45 0 45 0 0 350 0 349
73 3 72 3 3 43 3 42 -196 0 -196 0 3 -42z"/>
<path d="M6720 986 c0 -214 4 -334 11 -357 18 -53 65 -96 120 -109 95 -23 172
8 210 87 24 48 24 51 24 373 l0 325 -45 0 -45 0 -5 -332 c-6 -371 -3 -360 -77
-370 -32 -4 -45 -1 -69 20 l-29 25 -3 331 -3 331 -44 0 -45 0 0 -324z"/>
<path d="M7540 915 l0 -395 45 0 45 0 2 168 3 167 44 0 44 0 50 -167 51 -168
49 0 c35 0 48 4 44 13 -2 6 -28 87 -57 180 l-52 167 27 22 c42 33 65 92 65
173 0 92 -15 142 -54 181 -42 42 -89 54 -208 54 l-98 0 0 -395z m235 281 c47
-47 48 -178 1 -224 -22 -22 -35 -27 -83 -27 l-58 0 -3 138 -3 137 61 0 c51 0
65 -4 85 -24z"/>
<path d="M8457 1288 c-11 -45 -167 -758 -167 -763 0 -3 20 -5 44 -5 l44 0 10
47 c6 27 14 66 18 88 4 22 12 43 18 47 19 13 153 9 163 -4 6 -7 16 -42 22 -78
19 -103 17 -100 67 -100 24 0 44 2 44 5 0 3 -24 116 -54 252 -30 137 -66 304
-81 373 -37 174 -30 160 -80 160 -36 0 -44 -3 -48 -22z m84 -325 c16 -81 29
-154 29 -160 0 -9 -20 -13 -69 -13 l-69 0 23 108 c13 59 28 133 35 165 6 32
14 56 17 53 3 -2 18 -71 34 -153z"/>
</g>
</svg>
